G04 #@! TF.GenerationSoftware,KiCad,Pcbnew,9.0.7*
G04 #@! TF.CreationDate,2026-04-03T00:17:23+02:00*
G04 #@! TF.ProjectId,kicad-template-arduino-hat,6b696361-642d-4746-956d-706c6174652d,rev?*
G04 #@! TF.SameCoordinates,Original*
G04 #@! TF.FileFunction,Soldermask,Bot*
G04 #@! TF.FilePolarity,Negative*
%FSLAX46Y46*%
G04 Gerber Fmt 4.6, Leading zero omitted, Abs format (unit mm)*
G04 Created by KiCad (PCBNEW 9.0.7) date 2026-04-03 00:17:23*
%MOMM*%
%LPD*%
G01*
G04 APERTURE LIST*
G04 APERTURE END LIST*
G36*
X161524517Y-100067882D02*
G01*
X161541062Y-100078938D01*
X161552118Y-100095483D01*
X161556000Y-100115000D01*
X161556000Y-101815000D01*
X161552118Y-101834517D01*
X161541062Y-101851062D01*
X161524517Y-101862118D01*
X161505000Y-101866000D01*
X159805000Y-101866000D01*
X159785483Y-101862118D01*
X159768938Y-101851062D01*
X159757882Y-101834517D01*
X159754000Y-101815000D01*
X159754000Y-100115000D01*
X159757882Y-100095483D01*
X159768938Y-100078938D01*
X159785483Y-100067882D01*
X159805000Y-100064000D01*
X161505000Y-100064000D01*
X161524517Y-100067882D01*
G37*
G36*
X184384517Y-100067882D02*
G01*
X184401062Y-100078938D01*
X184412118Y-100095483D01*
X184416000Y-100115000D01*
X184416000Y-101815000D01*
X184412118Y-101834517D01*
X184401062Y-101851062D01*
X184384517Y-101862118D01*
X184365000Y-101866000D01*
X182665000Y-101866000D01*
X182645483Y-101862118D01*
X182628938Y-101851062D01*
X182617882Y-101834517D01*
X182614000Y-101815000D01*
X182614000Y-100115000D01*
X182617882Y-100095483D01*
X182628938Y-100078938D01*
X182645483Y-100067882D01*
X182665000Y-100064000D01*
X184365000Y-100064000D01*
X184384517Y-100067882D01*
G37*
G36*
X163456546Y-100102797D02*
G01*
X163619728Y-100170389D01*
X163766588Y-100268518D01*
X163891482Y-100393412D01*
X163989611Y-100540272D01*
X164057203Y-100703454D01*
X164091661Y-100876687D01*
X164091661Y-101053313D01*
X164057203Y-101226546D01*
X163989611Y-101389728D01*
X163891482Y-101536588D01*
X163766588Y-101661482D01*
X163619728Y-101759611D01*
X163456546Y-101827203D01*
X163283313Y-101861661D01*
X163106687Y-101861661D01*
X162933454Y-101827203D01*
X162770272Y-101759611D01*
X162623412Y-101661482D01*
X162498518Y-101536588D01*
X162400389Y-101389728D01*
X162332797Y-101226546D01*
X162298339Y-101053313D01*
X162298339Y-100876687D01*
X162332797Y-100703454D01*
X162400389Y-100540272D01*
X162498518Y-100393412D01*
X162623412Y-100268518D01*
X162770272Y-100170389D01*
X162933454Y-100102797D01*
X163106687Y-100068339D01*
X163283313Y-100068339D01*
X163456546Y-100102797D01*
G37*
G36*
X165996546Y-100102797D02*
G01*
X166159728Y-100170389D01*
X166306588Y-100268518D01*
X166431482Y-100393412D01*
X166529611Y-100540272D01*
X166597203Y-100703454D01*
X166631661Y-100876687D01*
X166631661Y-101053313D01*
X166597203Y-101226546D01*
X166529611Y-101389728D01*
X166431482Y-101536588D01*
X166306588Y-101661482D01*
X166159728Y-101759611D01*
X165996546Y-101827203D01*
X165823313Y-101861661D01*
X165646687Y-101861661D01*
X165473454Y-101827203D01*
X165310272Y-101759611D01*
X165163412Y-101661482D01*
X165038518Y-101536588D01*
X164940389Y-101389728D01*
X164872797Y-101226546D01*
X164838339Y-101053313D01*
X164838339Y-100876687D01*
X164872797Y-100703454D01*
X164940389Y-100540272D01*
X165038518Y-100393412D01*
X165163412Y-100268518D01*
X165310272Y-100170389D01*
X165473454Y-100102797D01*
X165646687Y-100068339D01*
X165823313Y-100068339D01*
X165996546Y-100102797D01*
G37*
G36*
X168536546Y-100102797D02*
G01*
X168699728Y-100170389D01*
X168846588Y-100268518D01*
X168971482Y-100393412D01*
X169069611Y-100540272D01*
X169137203Y-100703454D01*
X169171661Y-100876687D01*
X169171661Y-101053313D01*
X169137203Y-101226546D01*
X169069611Y-101389728D01*
X168971482Y-101536588D01*
X168846588Y-101661482D01*
X168699728Y-101759611D01*
X168536546Y-101827203D01*
X168363313Y-101861661D01*
X168186687Y-101861661D01*
X168013454Y-101827203D01*
X167850272Y-101759611D01*
X167703412Y-101661482D01*
X167578518Y-101536588D01*
X167480389Y-101389728D01*
X167412797Y-101226546D01*
X167378339Y-101053313D01*
X167378339Y-100876687D01*
X167412797Y-100703454D01*
X167480389Y-100540272D01*
X167578518Y-100393412D01*
X167703412Y-100268518D01*
X167850272Y-100170389D01*
X168013454Y-100102797D01*
X168186687Y-100068339D01*
X168363313Y-100068339D01*
X168536546Y-100102797D01*
G37*
G36*
X171076546Y-100102797D02*
G01*
X171239728Y-100170389D01*
X171386588Y-100268518D01*
X171511482Y-100393412D01*
X171609611Y-100540272D01*
X171677203Y-100703454D01*
X171711661Y-100876687D01*
X171711661Y-101053313D01*
X171677203Y-101226546D01*
X171609611Y-101389728D01*
X171511482Y-101536588D01*
X171386588Y-101661482D01*
X171239728Y-101759611D01*
X171076546Y-101827203D01*
X170903313Y-101861661D01*
X170726687Y-101861661D01*
X170553454Y-101827203D01*
X170390272Y-101759611D01*
X170243412Y-101661482D01*
X170118518Y-101536588D01*
X170020389Y-101389728D01*
X169952797Y-101226546D01*
X169918339Y-101053313D01*
X169918339Y-100876687D01*
X169952797Y-100703454D01*
X170020389Y-100540272D01*
X170118518Y-100393412D01*
X170243412Y-100268518D01*
X170390272Y-100170389D01*
X170553454Y-100102797D01*
X170726687Y-100068339D01*
X170903313Y-100068339D01*
X171076546Y-100102797D01*
G37*
G36*
X173616546Y-100102797D02*
G01*
X173779728Y-100170389D01*
X173926588Y-100268518D01*
X174051482Y-100393412D01*
X174149611Y-100540272D01*
X174217203Y-100703454D01*
X174251661Y-100876687D01*
X174251661Y-101053313D01*
X174217203Y-101226546D01*
X174149611Y-101389728D01*
X174051482Y-101536588D01*
X173926588Y-101661482D01*
X173779728Y-101759611D01*
X173616546Y-101827203D01*
X173443313Y-101861661D01*
X173266687Y-101861661D01*
X173093454Y-101827203D01*
X172930272Y-101759611D01*
X172783412Y-101661482D01*
X172658518Y-101536588D01*
X172560389Y-101389728D01*
X172492797Y-101226546D01*
X172458339Y-101053313D01*
X172458339Y-100876687D01*
X172492797Y-100703454D01*
X172560389Y-100540272D01*
X172658518Y-100393412D01*
X172783412Y-100268518D01*
X172930272Y-100170389D01*
X173093454Y-100102797D01*
X173266687Y-100068339D01*
X173443313Y-100068339D01*
X173616546Y-100102797D01*
G37*
G36*
X176156546Y-100102797D02*
G01*
X176319728Y-100170389D01*
X176466588Y-100268518D01*
X176591482Y-100393412D01*
X176689611Y-100540272D01*
X176757203Y-100703454D01*
X176791661Y-100876687D01*
X176791661Y-101053313D01*
X176757203Y-101226546D01*
X176689611Y-101389728D01*
X176591482Y-101536588D01*
X176466588Y-101661482D01*
X176319728Y-101759611D01*
X176156546Y-101827203D01*
X175983313Y-101861661D01*
X175806687Y-101861661D01*
X175633454Y-101827203D01*
X175470272Y-101759611D01*
X175323412Y-101661482D01*
X175198518Y-101536588D01*
X175100389Y-101389728D01*
X175032797Y-101226546D01*
X174998339Y-101053313D01*
X174998339Y-100876687D01*
X175032797Y-100703454D01*
X175100389Y-100540272D01*
X175198518Y-100393412D01*
X175323412Y-100268518D01*
X175470272Y-100170389D01*
X175633454Y-100102797D01*
X175806687Y-100068339D01*
X175983313Y-100068339D01*
X176156546Y-100102797D01*
G37*
G36*
X178696546Y-100102797D02*
G01*
X178859728Y-100170389D01*
X179006588Y-100268518D01*
X179131482Y-100393412D01*
X179229611Y-100540272D01*
X179297203Y-100703454D01*
X179331661Y-100876687D01*
X179331661Y-101053313D01*
X179297203Y-101226546D01*
X179229611Y-101389728D01*
X179131482Y-101536588D01*
X179006588Y-101661482D01*
X178859728Y-101759611D01*
X178696546Y-101827203D01*
X178523313Y-101861661D01*
X178346687Y-101861661D01*
X178173454Y-101827203D01*
X178010272Y-101759611D01*
X177863412Y-101661482D01*
X177738518Y-101536588D01*
X177640389Y-101389728D01*
X177572797Y-101226546D01*
X177538339Y-101053313D01*
X177538339Y-100876687D01*
X177572797Y-100703454D01*
X177640389Y-100540272D01*
X177738518Y-100393412D01*
X177863412Y-100268518D01*
X178010272Y-100170389D01*
X178173454Y-100102797D01*
X178346687Y-100068339D01*
X178523313Y-100068339D01*
X178696546Y-100102797D01*
G37*
G36*
X186316546Y-100102797D02*
G01*
X186479728Y-100170389D01*
X186626588Y-100268518D01*
X186751482Y-100393412D01*
X186849611Y-100540272D01*
X186917203Y-100703454D01*
X186951661Y-100876687D01*
X186951661Y-101053313D01*
X186917203Y-101226546D01*
X186849611Y-101389728D01*
X186751482Y-101536588D01*
X186626588Y-101661482D01*
X186479728Y-101759611D01*
X186316546Y-101827203D01*
X186143313Y-101861661D01*
X185966687Y-101861661D01*
X185793454Y-101827203D01*
X185630272Y-101759611D01*
X185483412Y-101661482D01*
X185358518Y-101536588D01*
X185260389Y-101389728D01*
X185192797Y-101226546D01*
X185158339Y-101053313D01*
X185158339Y-100876687D01*
X185192797Y-100703454D01*
X185260389Y-100540272D01*
X185358518Y-100393412D01*
X185483412Y-100268518D01*
X185630272Y-100170389D01*
X185793454Y-100102797D01*
X185966687Y-100068339D01*
X186143313Y-100068339D01*
X186316546Y-100102797D01*
G37*
G36*
X188856546Y-100102797D02*
G01*
X189019728Y-100170389D01*
X189166588Y-100268518D01*
X189291482Y-100393412D01*
X189389611Y-100540272D01*
X189457203Y-100703454D01*
X189491661Y-100876687D01*
X189491661Y-101053313D01*
X189457203Y-101226546D01*
X189389611Y-101389728D01*
X189291482Y-101536588D01*
X189166588Y-101661482D01*
X189019728Y-101759611D01*
X188856546Y-101827203D01*
X188683313Y-101861661D01*
X188506687Y-101861661D01*
X188333454Y-101827203D01*
X188170272Y-101759611D01*
X188023412Y-101661482D01*
X187898518Y-101536588D01*
X187800389Y-101389728D01*
X187732797Y-101226546D01*
X187698339Y-101053313D01*
X187698339Y-100876687D01*
X187732797Y-100703454D01*
X187800389Y-100540272D01*
X187898518Y-100393412D01*
X188023412Y-100268518D01*
X188170272Y-100170389D01*
X188333454Y-100102797D01*
X188506687Y-100068339D01*
X188683313Y-100068339D01*
X188856546Y-100102797D01*
G37*
G36*
X191396546Y-100102797D02*
G01*
X191559728Y-100170389D01*
X191706588Y-100268518D01*
X191831482Y-100393412D01*
X191929611Y-100540272D01*
X191997203Y-100703454D01*
X192031661Y-100876687D01*
X192031661Y-101053313D01*
X191997203Y-101226546D01*
X191929611Y-101389728D01*
X191831482Y-101536588D01*
X191706588Y-101661482D01*
X191559728Y-101759611D01*
X191396546Y-101827203D01*
X191223313Y-101861661D01*
X191046687Y-101861661D01*
X190873454Y-101827203D01*
X190710272Y-101759611D01*
X190563412Y-101661482D01*
X190438518Y-101536588D01*
X190340389Y-101389728D01*
X190272797Y-101226546D01*
X190238339Y-101053313D01*
X190238339Y-100876687D01*
X190272797Y-100703454D01*
X190340389Y-100540272D01*
X190438518Y-100393412D01*
X190563412Y-100268518D01*
X190710272Y-100170389D01*
X190873454Y-100102797D01*
X191046687Y-100068339D01*
X191223313Y-100068339D01*
X191396546Y-100102797D01*
G37*
G36*
X193936546Y-100102797D02*
G01*
X194099728Y-100170389D01*
X194246588Y-100268518D01*
X194371482Y-100393412D01*
X194469611Y-100540272D01*
X194537203Y-100703454D01*
X194571661Y-100876687D01*
X194571661Y-101053313D01*
X194537203Y-101226546D01*
X194469611Y-101389728D01*
X194371482Y-101536588D01*
X194246588Y-101661482D01*
X194099728Y-101759611D01*
X193936546Y-101827203D01*
X193763313Y-101861661D01*
X193586687Y-101861661D01*
X193413454Y-101827203D01*
X193250272Y-101759611D01*
X193103412Y-101661482D01*
X192978518Y-101536588D01*
X192880389Y-101389728D01*
X192812797Y-101226546D01*
X192778339Y-101053313D01*
X192778339Y-100876687D01*
X192812797Y-100703454D01*
X192880389Y-100540272D01*
X192978518Y-100393412D01*
X193103412Y-100268518D01*
X193250272Y-100170389D01*
X193413454Y-100102797D01*
X193586687Y-100068339D01*
X193763313Y-100068339D01*
X193936546Y-100102797D01*
G37*
G36*
X196476546Y-100102797D02*
G01*
X196639728Y-100170389D01*
X196786588Y-100268518D01*
X196911482Y-100393412D01*
X197009611Y-100540272D01*
X197077203Y-100703454D01*
X197111661Y-100876687D01*
X197111661Y-101053313D01*
X197077203Y-101226546D01*
X197009611Y-101389728D01*
X196911482Y-101536588D01*
X196786588Y-101661482D01*
X196639728Y-101759611D01*
X196476546Y-101827203D01*
X196303313Y-101861661D01*
X196126687Y-101861661D01*
X195953454Y-101827203D01*
X195790272Y-101759611D01*
X195643412Y-101661482D01*
X195518518Y-101536588D01*
X195420389Y-101389728D01*
X195352797Y-101226546D01*
X195318339Y-101053313D01*
X195318339Y-100876687D01*
X195352797Y-100703454D01*
X195420389Y-100540272D01*
X195518518Y-100393412D01*
X195643412Y-100268518D01*
X195790272Y-100170389D01*
X195953454Y-100102797D01*
X196126687Y-100068339D01*
X196303313Y-100068339D01*
X196476546Y-100102797D01*
G37*
G36*
X177761546Y-83257797D02*
G01*
X177924728Y-83325389D01*
X178071588Y-83423518D01*
X178196482Y-83548412D01*
X178294611Y-83695272D01*
X178362203Y-83858454D01*
X178396661Y-84031687D01*
X178396661Y-84208313D01*
X178362203Y-84381546D01*
X178294611Y-84544728D01*
X178196482Y-84691588D01*
X178071588Y-84816482D01*
X177924728Y-84914611D01*
X177761546Y-84982203D01*
X177588313Y-85016661D01*
X177411687Y-85016661D01*
X177238454Y-84982203D01*
X177075272Y-84914611D01*
X176928412Y-84816482D01*
X176803518Y-84691588D01*
X176705389Y-84544728D01*
X176637797Y-84381546D01*
X176603339Y-84208313D01*
X176603339Y-84031687D01*
X176637797Y-83858454D01*
X176705389Y-83695272D01*
X176803518Y-83548412D01*
X176928412Y-83423518D01*
X177075272Y-83325389D01*
X177238454Y-83257797D01*
X177411687Y-83223339D01*
X177588313Y-83223339D01*
X177761546Y-83257797D01*
G37*
G36*
X177761546Y-80717797D02*
G01*
X177924728Y-80785389D01*
X178071588Y-80883518D01*
X178196482Y-81008412D01*
X178294611Y-81155272D01*
X178362203Y-81318454D01*
X178396661Y-81491687D01*
X178396661Y-81668313D01*
X178362203Y-81841546D01*
X178294611Y-82004728D01*
X178196482Y-82151588D01*
X178071588Y-82276482D01*
X177924728Y-82374611D01*
X177761546Y-82442203D01*
X177588313Y-82476661D01*
X177411687Y-82476661D01*
X177238454Y-82442203D01*
X177075272Y-82374611D01*
X176928412Y-82276482D01*
X176803518Y-82151588D01*
X176705389Y-82004728D01*
X176637797Y-81841546D01*
X176603339Y-81668313D01*
X176603339Y-81491687D01*
X176637797Y-81318454D01*
X176705389Y-81155272D01*
X176803518Y-81008412D01*
X176928412Y-80883518D01*
X177075272Y-80785389D01*
X177238454Y-80717797D01*
X177411687Y-80683339D01*
X177588313Y-80683339D01*
X177761546Y-80717797D01*
G37*
G36*
X177761546Y-78177797D02*
G01*
X177924728Y-78245389D01*
X178071588Y-78343518D01*
X178196482Y-78468412D01*
X178294611Y-78615272D01*
X178362203Y-78778454D01*
X178396661Y-78951687D01*
X178396661Y-79128313D01*
X178362203Y-79301546D01*
X178294611Y-79464728D01*
X178196482Y-79611588D01*
X178071588Y-79736482D01*
X177924728Y-79834611D01*
X177761546Y-79902203D01*
X177588313Y-79936661D01*
X177411687Y-79936661D01*
X177238454Y-79902203D01*
X177075272Y-79834611D01*
X176928412Y-79736482D01*
X176803518Y-79611588D01*
X176705389Y-79464728D01*
X176637797Y-79301546D01*
X176603339Y-79128313D01*
X176603339Y-78951687D01*
X176637797Y-78778454D01*
X176705389Y-78615272D01*
X176803518Y-78468412D01*
X176928412Y-78343518D01*
X177075272Y-78245389D01*
X177238454Y-78177797D01*
X177411687Y-78143339D01*
X177588313Y-78143339D01*
X177761546Y-78177797D01*
G37*
G36*
X177761546Y-75637797D02*
G01*
X177924728Y-75705389D01*
X178071588Y-75803518D01*
X178196482Y-75928412D01*
X178294611Y-76075272D01*
X178362203Y-76238454D01*
X178396661Y-76411687D01*
X178396661Y-76588313D01*
X178362203Y-76761546D01*
X178294611Y-76924728D01*
X178196482Y-77071588D01*
X178071588Y-77196482D01*
X177924728Y-77294611D01*
X177761546Y-77362203D01*
X177588313Y-77396661D01*
X177411687Y-77396661D01*
X177238454Y-77362203D01*
X177075272Y-77294611D01*
X176928412Y-77196482D01*
X176803518Y-77071588D01*
X176705389Y-76924728D01*
X176637797Y-76761546D01*
X176603339Y-76588313D01*
X176603339Y-76411687D01*
X176637797Y-76238454D01*
X176705389Y-76075272D01*
X176803518Y-75928412D01*
X176928412Y-75803518D01*
X177075272Y-75705389D01*
X177238454Y-75637797D01*
X177411687Y-75603339D01*
X177588313Y-75603339D01*
X177761546Y-75637797D01*
G37*
G36*
X177761546Y-73097797D02*
G01*
X177924728Y-73165389D01*
X178071588Y-73263518D01*
X178196482Y-73388412D01*
X178294611Y-73535272D01*
X178362203Y-73698454D01*
X178396661Y-73871687D01*
X178396661Y-74048313D01*
X178362203Y-74221546D01*
X178294611Y-74384728D01*
X178196482Y-74531588D01*
X178071588Y-74656482D01*
X177924728Y-74754611D01*
X177761546Y-74822203D01*
X177588313Y-74856661D01*
X177411687Y-74856661D01*
X177238454Y-74822203D01*
X177075272Y-74754611D01*
X176928412Y-74656482D01*
X176803518Y-74531588D01*
X176705389Y-74384728D01*
X176637797Y-74221546D01*
X176603339Y-74048313D01*
X176603339Y-73871687D01*
X176637797Y-73698454D01*
X176705389Y-73535272D01*
X176803518Y-73388412D01*
X176928412Y-73263518D01*
X177075272Y-73165389D01*
X177238454Y-73097797D01*
X177411687Y-73063339D01*
X177588313Y-73063339D01*
X177761546Y-73097797D01*
G37*
G36*
X177761546Y-70557797D02*
G01*
X177924728Y-70625389D01*
X178071588Y-70723518D01*
X178196482Y-70848412D01*
X178294611Y-70995272D01*
X178362203Y-71158454D01*
X178396661Y-71331687D01*
X178396661Y-71508313D01*
X178362203Y-71681546D01*
X178294611Y-71844728D01*
X178196482Y-71991588D01*
X178071588Y-72116482D01*
X177924728Y-72214611D01*
X177761546Y-72282203D01*
X177588313Y-72316661D01*
X177411687Y-72316661D01*
X177238454Y-72282203D01*
X177075272Y-72214611D01*
X176928412Y-72116482D01*
X176803518Y-71991588D01*
X176705389Y-71844728D01*
X176637797Y-71681546D01*
X176603339Y-71508313D01*
X176603339Y-71331687D01*
X176637797Y-71158454D01*
X176705389Y-70995272D01*
X176803518Y-70848412D01*
X176928412Y-70723518D01*
X177075272Y-70625389D01*
X177238454Y-70557797D01*
X177411687Y-70523339D01*
X177588313Y-70523339D01*
X177761546Y-70557797D01*
G37*
G36*
X178369517Y-67982882D02*
G01*
X178386062Y-67993938D01*
X178397118Y-68010483D01*
X178401000Y-68030000D01*
X178401000Y-69730000D01*
X178397118Y-69749517D01*
X178386062Y-69766062D01*
X178369517Y-69777118D01*
X178350000Y-69781000D01*
X176650000Y-69781000D01*
X176630483Y-69777118D01*
X176613938Y-69766062D01*
X176602882Y-69749517D01*
X176599000Y-69730000D01*
X176599000Y-68030000D01*
X176602882Y-68010483D01*
X176613938Y-67993938D01*
X176630483Y-67982882D01*
X176650000Y-67979000D01*
X178350000Y-67979000D01*
X178369517Y-67982882D01*
G37*
G36*
X174859517Y-51172882D02*
G01*
X174876062Y-51183938D01*
X174887118Y-51200483D01*
X174891000Y-51220000D01*
X174891000Y-52920000D01*
X174887118Y-52939517D01*
X174876062Y-52956062D01*
X174859517Y-52967118D01*
X174840000Y-52971000D01*
X173140000Y-52971000D01*
X173120483Y-52967118D01*
X173103938Y-52956062D01*
X173092882Y-52939517D01*
X173089000Y-52920000D01*
X173089000Y-51220000D01*
X173092882Y-51200483D01*
X173103938Y-51183938D01*
X173120483Y-51172882D01*
X173140000Y-51169000D01*
X174840000Y-51169000D01*
X174859517Y-51172882D01*
G37*
G36*
X197084517Y-51172882D02*
G01*
X197101062Y-51183938D01*
X197112118Y-51200483D01*
X197116000Y-51220000D01*
X197116000Y-52920000D01*
X197112118Y-52939517D01*
X197101062Y-52956062D01*
X197084517Y-52967118D01*
X197065000Y-52971000D01*
X195365000Y-52971000D01*
X195345483Y-52967118D01*
X195328938Y-52956062D01*
X195317882Y-52939517D01*
X195314000Y-52920000D01*
X195314000Y-51220000D01*
X195317882Y-51200483D01*
X195328938Y-51183938D01*
X195345483Y-51172882D01*
X195365000Y-51169000D01*
X197065000Y-51169000D01*
X197084517Y-51172882D01*
G37*
G36*
X151391546Y-51207797D02*
G01*
X151554728Y-51275389D01*
X151701588Y-51373518D01*
X151826482Y-51498412D01*
X151924611Y-51645272D01*
X151992203Y-51808454D01*
X152026661Y-51981687D01*
X152026661Y-52158313D01*
X151992203Y-52331546D01*
X151924611Y-52494728D01*
X151826482Y-52641588D01*
X151701588Y-52766482D01*
X151554728Y-52864611D01*
X151391546Y-52932203D01*
X151218313Y-52966661D01*
X151041687Y-52966661D01*
X150868454Y-52932203D01*
X150705272Y-52864611D01*
X150558412Y-52766482D01*
X150433518Y-52641588D01*
X150335389Y-52494728D01*
X150267797Y-52331546D01*
X150233339Y-52158313D01*
X150233339Y-51981687D01*
X150267797Y-51808454D01*
X150335389Y-51645272D01*
X150433518Y-51498412D01*
X150558412Y-51373518D01*
X150705272Y-51275389D01*
X150868454Y-51207797D01*
X151041687Y-51173339D01*
X151218313Y-51173339D01*
X151391546Y-51207797D01*
G37*
G36*
X153931546Y-51207797D02*
G01*
X154094728Y-51275389D01*
X154241588Y-51373518D01*
X154366482Y-51498412D01*
X154464611Y-51645272D01*
X154532203Y-51808454D01*
X154566661Y-51981687D01*
X154566661Y-52158313D01*
X154532203Y-52331546D01*
X154464611Y-52494728D01*
X154366482Y-52641588D01*
X154241588Y-52766482D01*
X154094728Y-52864611D01*
X153931546Y-52932203D01*
X153758313Y-52966661D01*
X153581687Y-52966661D01*
X153408454Y-52932203D01*
X153245272Y-52864611D01*
X153098412Y-52766482D01*
X152973518Y-52641588D01*
X152875389Y-52494728D01*
X152807797Y-52331546D01*
X152773339Y-52158313D01*
X152773339Y-51981687D01*
X152807797Y-51808454D01*
X152875389Y-51645272D01*
X152973518Y-51498412D01*
X153098412Y-51373518D01*
X153245272Y-51275389D01*
X153408454Y-51207797D01*
X153581687Y-51173339D01*
X153758313Y-51173339D01*
X153931546Y-51207797D01*
G37*
G36*
X156471546Y-51207797D02*
G01*
X156634728Y-51275389D01*
X156781588Y-51373518D01*
X156906482Y-51498412D01*
X157004611Y-51645272D01*
X157072203Y-51808454D01*
X157106661Y-51981687D01*
X157106661Y-52158313D01*
X157072203Y-52331546D01*
X157004611Y-52494728D01*
X156906482Y-52641588D01*
X156781588Y-52766482D01*
X156634728Y-52864611D01*
X156471546Y-52932203D01*
X156298313Y-52966661D01*
X156121687Y-52966661D01*
X155948454Y-52932203D01*
X155785272Y-52864611D01*
X155638412Y-52766482D01*
X155513518Y-52641588D01*
X155415389Y-52494728D01*
X155347797Y-52331546D01*
X155313339Y-52158313D01*
X155313339Y-51981687D01*
X155347797Y-51808454D01*
X155415389Y-51645272D01*
X155513518Y-51498412D01*
X155638412Y-51373518D01*
X155785272Y-51275389D01*
X155948454Y-51207797D01*
X156121687Y-51173339D01*
X156298313Y-51173339D01*
X156471546Y-51207797D01*
G37*
G36*
X159011546Y-51207797D02*
G01*
X159174728Y-51275389D01*
X159321588Y-51373518D01*
X159446482Y-51498412D01*
X159544611Y-51645272D01*
X159612203Y-51808454D01*
X159646661Y-51981687D01*
X159646661Y-52158313D01*
X159612203Y-52331546D01*
X159544611Y-52494728D01*
X159446482Y-52641588D01*
X159321588Y-52766482D01*
X159174728Y-52864611D01*
X159011546Y-52932203D01*
X158838313Y-52966661D01*
X158661687Y-52966661D01*
X158488454Y-52932203D01*
X158325272Y-52864611D01*
X158178412Y-52766482D01*
X158053518Y-52641588D01*
X157955389Y-52494728D01*
X157887797Y-52331546D01*
X157853339Y-52158313D01*
X157853339Y-51981687D01*
X157887797Y-51808454D01*
X157955389Y-51645272D01*
X158053518Y-51498412D01*
X158178412Y-51373518D01*
X158325272Y-51275389D01*
X158488454Y-51207797D01*
X158661687Y-51173339D01*
X158838313Y-51173339D01*
X159011546Y-51207797D01*
G37*
G36*
X161551546Y-51207797D02*
G01*
X161714728Y-51275389D01*
X161861588Y-51373518D01*
X161986482Y-51498412D01*
X162084611Y-51645272D01*
X162152203Y-51808454D01*
X162186661Y-51981687D01*
X162186661Y-52158313D01*
X162152203Y-52331546D01*
X162084611Y-52494728D01*
X161986482Y-52641588D01*
X161861588Y-52766482D01*
X161714728Y-52864611D01*
X161551546Y-52932203D01*
X161378313Y-52966661D01*
X161201687Y-52966661D01*
X161028454Y-52932203D01*
X160865272Y-52864611D01*
X160718412Y-52766482D01*
X160593518Y-52641588D01*
X160495389Y-52494728D01*
X160427797Y-52331546D01*
X160393339Y-52158313D01*
X160393339Y-51981687D01*
X160427797Y-51808454D01*
X160495389Y-51645272D01*
X160593518Y-51498412D01*
X160718412Y-51373518D01*
X160865272Y-51275389D01*
X161028454Y-51207797D01*
X161201687Y-51173339D01*
X161378313Y-51173339D01*
X161551546Y-51207797D01*
G37*
G36*
X164091546Y-51207797D02*
G01*
X164254728Y-51275389D01*
X164401588Y-51373518D01*
X164526482Y-51498412D01*
X164624611Y-51645272D01*
X164692203Y-51808454D01*
X164726661Y-51981687D01*
X164726661Y-52158313D01*
X164692203Y-52331546D01*
X164624611Y-52494728D01*
X164526482Y-52641588D01*
X164401588Y-52766482D01*
X164254728Y-52864611D01*
X164091546Y-52932203D01*
X163918313Y-52966661D01*
X163741687Y-52966661D01*
X163568454Y-52932203D01*
X163405272Y-52864611D01*
X163258412Y-52766482D01*
X163133518Y-52641588D01*
X163035389Y-52494728D01*
X162967797Y-52331546D01*
X162933339Y-52158313D01*
X162933339Y-51981687D01*
X162967797Y-51808454D01*
X163035389Y-51645272D01*
X163133518Y-51498412D01*
X163258412Y-51373518D01*
X163405272Y-51275389D01*
X163568454Y-51207797D01*
X163741687Y-51173339D01*
X163918313Y-51173339D01*
X164091546Y-51207797D01*
G37*
G36*
X166631546Y-51207797D02*
G01*
X166794728Y-51275389D01*
X166941588Y-51373518D01*
X167066482Y-51498412D01*
X167164611Y-51645272D01*
X167232203Y-51808454D01*
X167266661Y-51981687D01*
X167266661Y-52158313D01*
X167232203Y-52331546D01*
X167164611Y-52494728D01*
X167066482Y-52641588D01*
X166941588Y-52766482D01*
X166794728Y-52864611D01*
X166631546Y-52932203D01*
X166458313Y-52966661D01*
X166281687Y-52966661D01*
X166108454Y-52932203D01*
X165945272Y-52864611D01*
X165798412Y-52766482D01*
X165673518Y-52641588D01*
X165575389Y-52494728D01*
X165507797Y-52331546D01*
X165473339Y-52158313D01*
X165473339Y-51981687D01*
X165507797Y-51808454D01*
X165575389Y-51645272D01*
X165673518Y-51498412D01*
X165798412Y-51373518D01*
X165945272Y-51275389D01*
X166108454Y-51207797D01*
X166281687Y-51173339D01*
X166458313Y-51173339D01*
X166631546Y-51207797D01*
G37*
G36*
X169171546Y-51207797D02*
G01*
X169334728Y-51275389D01*
X169481588Y-51373518D01*
X169606482Y-51498412D01*
X169704611Y-51645272D01*
X169772203Y-51808454D01*
X169806661Y-51981687D01*
X169806661Y-52158313D01*
X169772203Y-52331546D01*
X169704611Y-52494728D01*
X169606482Y-52641588D01*
X169481588Y-52766482D01*
X169334728Y-52864611D01*
X169171546Y-52932203D01*
X168998313Y-52966661D01*
X168821687Y-52966661D01*
X168648454Y-52932203D01*
X168485272Y-52864611D01*
X168338412Y-52766482D01*
X168213518Y-52641588D01*
X168115389Y-52494728D01*
X168047797Y-52331546D01*
X168013339Y-52158313D01*
X168013339Y-51981687D01*
X168047797Y-51808454D01*
X168115389Y-51645272D01*
X168213518Y-51498412D01*
X168338412Y-51373518D01*
X168485272Y-51275389D01*
X168648454Y-51207797D01*
X168821687Y-51173339D01*
X168998313Y-51173339D01*
X169171546Y-51207797D01*
G37*
G36*
X171711546Y-51207797D02*
G01*
X171874728Y-51275389D01*
X172021588Y-51373518D01*
X172146482Y-51498412D01*
X172244611Y-51645272D01*
X172312203Y-51808454D01*
X172346661Y-51981687D01*
X172346661Y-52158313D01*
X172312203Y-52331546D01*
X172244611Y-52494728D01*
X172146482Y-52641588D01*
X172021588Y-52766482D01*
X171874728Y-52864611D01*
X171711546Y-52932203D01*
X171538313Y-52966661D01*
X171361687Y-52966661D01*
X171188454Y-52932203D01*
X171025272Y-52864611D01*
X170878412Y-52766482D01*
X170753518Y-52641588D01*
X170655389Y-52494728D01*
X170587797Y-52331546D01*
X170553339Y-52158313D01*
X170553339Y-51981687D01*
X170587797Y-51808454D01*
X170655389Y-51645272D01*
X170753518Y-51498412D01*
X170878412Y-51373518D01*
X171025272Y-51275389D01*
X171188454Y-51207797D01*
X171361687Y-51173339D01*
X171538313Y-51173339D01*
X171711546Y-51207797D01*
G37*
G36*
X178696546Y-51207797D02*
G01*
X178859728Y-51275389D01*
X179006588Y-51373518D01*
X179131482Y-51498412D01*
X179229611Y-51645272D01*
X179297203Y-51808454D01*
X179331661Y-51981687D01*
X179331661Y-52158313D01*
X179297203Y-52331546D01*
X179229611Y-52494728D01*
X179131482Y-52641588D01*
X179006588Y-52766482D01*
X178859728Y-52864611D01*
X178696546Y-52932203D01*
X178523313Y-52966661D01*
X178346687Y-52966661D01*
X178173454Y-52932203D01*
X178010272Y-52864611D01*
X177863412Y-52766482D01*
X177738518Y-52641588D01*
X177640389Y-52494728D01*
X177572797Y-52331546D01*
X177538339Y-52158313D01*
X177538339Y-51981687D01*
X177572797Y-51808454D01*
X177640389Y-51645272D01*
X177738518Y-51498412D01*
X177863412Y-51373518D01*
X178010272Y-51275389D01*
X178173454Y-51207797D01*
X178346687Y-51173339D01*
X178523313Y-51173339D01*
X178696546Y-51207797D01*
G37*
G36*
X181236546Y-51207797D02*
G01*
X181399728Y-51275389D01*
X181546588Y-51373518D01*
X181671482Y-51498412D01*
X181769611Y-51645272D01*
X181837203Y-51808454D01*
X181871661Y-51981687D01*
X181871661Y-52158313D01*
X181837203Y-52331546D01*
X181769611Y-52494728D01*
X181671482Y-52641588D01*
X181546588Y-52766482D01*
X181399728Y-52864611D01*
X181236546Y-52932203D01*
X181063313Y-52966661D01*
X180886687Y-52966661D01*
X180713454Y-52932203D01*
X180550272Y-52864611D01*
X180403412Y-52766482D01*
X180278518Y-52641588D01*
X180180389Y-52494728D01*
X180112797Y-52331546D01*
X180078339Y-52158313D01*
X180078339Y-51981687D01*
X180112797Y-51808454D01*
X180180389Y-51645272D01*
X180278518Y-51498412D01*
X180403412Y-51373518D01*
X180550272Y-51275389D01*
X180713454Y-51207797D01*
X180886687Y-51173339D01*
X181063313Y-51173339D01*
X181236546Y-51207797D01*
G37*
G36*
X183776546Y-51207797D02*
G01*
X183939728Y-51275389D01*
X184086588Y-51373518D01*
X184211482Y-51498412D01*
X184309611Y-51645272D01*
X184377203Y-51808454D01*
X184411661Y-51981687D01*
X184411661Y-52158313D01*
X184377203Y-52331546D01*
X184309611Y-52494728D01*
X184211482Y-52641588D01*
X184086588Y-52766482D01*
X183939728Y-52864611D01*
X183776546Y-52932203D01*
X183603313Y-52966661D01*
X183426687Y-52966661D01*
X183253454Y-52932203D01*
X183090272Y-52864611D01*
X182943412Y-52766482D01*
X182818518Y-52641588D01*
X182720389Y-52494728D01*
X182652797Y-52331546D01*
X182618339Y-52158313D01*
X182618339Y-51981687D01*
X182652797Y-51808454D01*
X182720389Y-51645272D01*
X182818518Y-51498412D01*
X182943412Y-51373518D01*
X183090272Y-51275389D01*
X183253454Y-51207797D01*
X183426687Y-51173339D01*
X183603313Y-51173339D01*
X183776546Y-51207797D01*
G37*
G36*
X186316546Y-51207797D02*
G01*
X186479728Y-51275389D01*
X186626588Y-51373518D01*
X186751482Y-51498412D01*
X186849611Y-51645272D01*
X186917203Y-51808454D01*
X186951661Y-51981687D01*
X186951661Y-52158313D01*
X186917203Y-52331546D01*
X186849611Y-52494728D01*
X186751482Y-52641588D01*
X186626588Y-52766482D01*
X186479728Y-52864611D01*
X186316546Y-52932203D01*
X186143313Y-52966661D01*
X185966687Y-52966661D01*
X185793454Y-52932203D01*
X185630272Y-52864611D01*
X185483412Y-52766482D01*
X185358518Y-52641588D01*
X185260389Y-52494728D01*
X185192797Y-52331546D01*
X185158339Y-52158313D01*
X185158339Y-51981687D01*
X185192797Y-51808454D01*
X185260389Y-51645272D01*
X185358518Y-51498412D01*
X185483412Y-51373518D01*
X185630272Y-51275389D01*
X185793454Y-51207797D01*
X185966687Y-51173339D01*
X186143313Y-51173339D01*
X186316546Y-51207797D01*
G37*
G36*
X188856546Y-51207797D02*
G01*
X189019728Y-51275389D01*
X189166588Y-51373518D01*
X189291482Y-51498412D01*
X189389611Y-51645272D01*
X189457203Y-51808454D01*
X189491661Y-51981687D01*
X189491661Y-52158313D01*
X189457203Y-52331546D01*
X189389611Y-52494728D01*
X189291482Y-52641588D01*
X189166588Y-52766482D01*
X189019728Y-52864611D01*
X188856546Y-52932203D01*
X188683313Y-52966661D01*
X188506687Y-52966661D01*
X188333454Y-52932203D01*
X188170272Y-52864611D01*
X188023412Y-52766482D01*
X187898518Y-52641588D01*
X187800389Y-52494728D01*
X187732797Y-52331546D01*
X187698339Y-52158313D01*
X187698339Y-51981687D01*
X187732797Y-51808454D01*
X187800389Y-51645272D01*
X187898518Y-51498412D01*
X188023412Y-51373518D01*
X188170272Y-51275389D01*
X188333454Y-51207797D01*
X188506687Y-51173339D01*
X188683313Y-51173339D01*
X188856546Y-51207797D01*
G37*
G36*
X191396546Y-51207797D02*
G01*
X191559728Y-51275389D01*
X191706588Y-51373518D01*
X191831482Y-51498412D01*
X191929611Y-51645272D01*
X191997203Y-51808454D01*
X192031661Y-51981687D01*
X192031661Y-52158313D01*
X191997203Y-52331546D01*
X191929611Y-52494728D01*
X191831482Y-52641588D01*
X191706588Y-52766482D01*
X191559728Y-52864611D01*
X191396546Y-52932203D01*
X191223313Y-52966661D01*
X191046687Y-52966661D01*
X190873454Y-52932203D01*
X190710272Y-52864611D01*
X190563412Y-52766482D01*
X190438518Y-52641588D01*
X190340389Y-52494728D01*
X190272797Y-52331546D01*
X190238339Y-52158313D01*
X190238339Y-51981687D01*
X190272797Y-51808454D01*
X190340389Y-51645272D01*
X190438518Y-51498412D01*
X190563412Y-51373518D01*
X190710272Y-51275389D01*
X190873454Y-51207797D01*
X191046687Y-51173339D01*
X191223313Y-51173339D01*
X191396546Y-51207797D01*
G37*
G36*
X193936546Y-51207797D02*
G01*
X194099728Y-51275389D01*
X194246588Y-51373518D01*
X194371482Y-51498412D01*
X194469611Y-51645272D01*
X194537203Y-51808454D01*
X194571661Y-51981687D01*
X194571661Y-52158313D01*
X194537203Y-52331546D01*
X194469611Y-52494728D01*
X194371482Y-52641588D01*
X194246588Y-52766482D01*
X194099728Y-52864611D01*
X193936546Y-52932203D01*
X193763313Y-52966661D01*
X193586687Y-52966661D01*
X193413454Y-52932203D01*
X193250272Y-52864611D01*
X193103412Y-52766482D01*
X192978518Y-52641588D01*
X192880389Y-52494728D01*
X192812797Y-52331546D01*
X192778339Y-52158313D01*
X192778339Y-51981687D01*
X192812797Y-51808454D01*
X192880389Y-51645272D01*
X192978518Y-51498412D01*
X193103412Y-51373518D01*
X193250272Y-51275389D01*
X193413454Y-51207797D01*
X193586687Y-51173339D01*
X193763313Y-51173339D01*
X193936546Y-51207797D01*
G37*
M02*
