M48
; DRILL file {KiCad 9.0.7} date 2026-04-03T00:18:22+0200
; FORMAT={-:-/ absolute / metric / decimal}
; #@! TF.CreationDate,2026-04-03T00:18:22+02:00
; #@! TF.GenerationSoftware,Kicad,Pcbnew,9.0.7
; #@! TF.FileFunction,Plated,1,2,PTH
FMAT,2
METRIC
; #@! TA.AperFunction,Plated,PTH,ComponentDrill
T1C1.000
%
G90
G05
T1
X151.13Y-52.07
X153.67Y-52.07
X156.21Y-52.07
X158.75Y-52.07
X160.655Y-100.965
X161.29Y-52.07
X163.195Y-100.965
X163.83Y-52.07
X165.735Y-100.965
X166.37Y-52.07
X168.275Y-100.965
X168.91Y-52.07
X170.815Y-100.965
X171.45Y-52.07
X173.355Y-100.965
X173.99Y-52.07
X175.895Y-100.965
X177.5Y-68.88
X177.5Y-71.42
X177.5Y-73.96
X177.5Y-76.5
X177.5Y-79.04
X177.5Y-81.58
X177.5Y-84.12
X178.435Y-52.07
X178.435Y-100.965
X180.975Y-52.07
X183.515Y-52.07
X183.515Y-100.965
X186.055Y-52.07
X186.055Y-100.965
X188.595Y-52.07
X188.595Y-100.965
X191.135Y-52.07
X191.135Y-100.965
X193.675Y-52.07
X193.675Y-100.965
X196.215Y-52.07
X196.215Y-100.965
M30
