G04 #@! TF.GenerationSoftware,KiCad,Pcbnew,9.0.7*
G04 #@! TF.CreationDate,2026-04-03T00:17:22+02:00*
G04 #@! TF.ProjectId,kicad-template-arduino-hat,6b696361-642d-4746-956d-706c6174652d,rev?*
G04 #@! TF.SameCoordinates,Original*
G04 #@! TF.FileFunction,Legend,Top*
G04 #@! TF.FilePolarity,Positive*
%FSLAX46Y46*%
G04 Gerber Fmt 4.6, Leading zero omitted, Abs format (unit mm)*
G04 Created by KiCad (PCBNEW 9.0.7) date 2026-04-03 00:17:22*
%MOMM*%
%LPD*%
G01*
G04 APERTURE LIST*
%ADD10C,0.150000*%
%ADD11C,0.120000*%
G04 APERTURE END LIST*
D10*
X148002666Y-52794819D02*
X148002666Y-53509104D01*
X148002666Y-53509104D02*
X147955047Y-53651961D01*
X147955047Y-53651961D02*
X147859809Y-53747200D01*
X147859809Y-53747200D02*
X147716952Y-53794819D01*
X147716952Y-53794819D02*
X147621714Y-53794819D01*
X149002666Y-53794819D02*
X148431238Y-53794819D01*
X148716952Y-53794819D02*
X148716952Y-52794819D01*
X148716952Y-52794819D02*
X148621714Y-52937676D01*
X148621714Y-52937676D02*
X148526476Y-53032914D01*
X148526476Y-53032914D02*
X148431238Y-53080533D01*
X198675666Y-52794819D02*
X198675666Y-53509104D01*
X198675666Y-53509104D02*
X198628047Y-53651961D01*
X198628047Y-53651961D02*
X198532809Y-53747200D01*
X198532809Y-53747200D02*
X198389952Y-53794819D01*
X198389952Y-53794819D02*
X198294714Y-53794819D01*
X199104238Y-52890057D02*
X199151857Y-52842438D01*
X199151857Y-52842438D02*
X199247095Y-52794819D01*
X199247095Y-52794819D02*
X199485190Y-52794819D01*
X199485190Y-52794819D02*
X199580428Y-52842438D01*
X199580428Y-52842438D02*
X199628047Y-52890057D01*
X199628047Y-52890057D02*
X199675666Y-52985295D01*
X199675666Y-52985295D02*
X199675666Y-53080533D01*
X199675666Y-53080533D02*
X199628047Y-53223390D01*
X199628047Y-53223390D02*
X199056619Y-53794819D01*
X199056619Y-53794819D02*
X199675666Y-53794819D01*
X157400666Y-99276819D02*
X157400666Y-99991104D01*
X157400666Y-99991104D02*
X157353047Y-100133961D01*
X157353047Y-100133961D02*
X157257809Y-100229200D01*
X157257809Y-100229200D02*
X157114952Y-100276819D01*
X157114952Y-100276819D02*
X157019714Y-100276819D01*
X157781619Y-99276819D02*
X158400666Y-99276819D01*
X158400666Y-99276819D02*
X158067333Y-99657771D01*
X158067333Y-99657771D02*
X158210190Y-99657771D01*
X158210190Y-99657771D02*
X158305428Y-99705390D01*
X158305428Y-99705390D02*
X158353047Y-99753009D01*
X158353047Y-99753009D02*
X158400666Y-99848247D01*
X158400666Y-99848247D02*
X158400666Y-100086342D01*
X158400666Y-100086342D02*
X158353047Y-100181580D01*
X158353047Y-100181580D02*
X158305428Y-100229200D01*
X158305428Y-100229200D02*
X158210190Y-100276819D01*
X158210190Y-100276819D02*
X157924476Y-100276819D01*
X157924476Y-100276819D02*
X157829238Y-100229200D01*
X157829238Y-100229200D02*
X157781619Y-100181580D01*
X198675666Y-99149819D02*
X198675666Y-99864104D01*
X198675666Y-99864104D02*
X198628047Y-100006961D01*
X198628047Y-100006961D02*
X198532809Y-100102200D01*
X198532809Y-100102200D02*
X198389952Y-100149819D01*
X198389952Y-100149819D02*
X198294714Y-100149819D01*
X199580428Y-99483152D02*
X199580428Y-100149819D01*
X199342333Y-99102200D02*
X199104238Y-99816485D01*
X199104238Y-99816485D02*
X199723285Y-99816485D01*
X177166666Y-65564819D02*
X177166666Y-66279104D01*
X177166666Y-66279104D02*
X177119047Y-66421961D01*
X177119047Y-66421961D02*
X177023809Y-66517200D01*
X177023809Y-66517200D02*
X176880952Y-66564819D01*
X176880952Y-66564819D02*
X176785714Y-66564819D01*
X178119047Y-65564819D02*
X177642857Y-65564819D01*
X177642857Y-65564819D02*
X177595238Y-66041009D01*
X177595238Y-66041009D02*
X177642857Y-65993390D01*
X177642857Y-65993390D02*
X177738095Y-65945771D01*
X177738095Y-65945771D02*
X177976190Y-65945771D01*
X177976190Y-65945771D02*
X178071428Y-65993390D01*
X178071428Y-65993390D02*
X178119047Y-66041009D01*
X178119047Y-66041009D02*
X178166666Y-66136247D01*
X178166666Y-66136247D02*
X178166666Y-66374342D01*
X178166666Y-66374342D02*
X178119047Y-66469580D01*
X178119047Y-66469580D02*
X178071428Y-66517200D01*
X178071428Y-66517200D02*
X177976190Y-66564819D01*
X177976190Y-66564819D02*
X177738095Y-66564819D01*
X177738095Y-66564819D02*
X177642857Y-66517200D01*
X177642857Y-66517200D02*
X177595238Y-66469580D01*
D11*
X149800000Y-50740000D02*
X149800000Y-53400000D01*
X172720000Y-50740000D02*
X149800000Y-50740000D01*
X172720000Y-50740000D02*
X172720000Y-53400000D01*
X172720000Y-53400000D02*
X149800000Y-53400000D01*
X173990000Y-50740000D02*
X175320000Y-50740000D01*
X175320000Y-50740000D02*
X175320000Y-52070000D01*
X177105000Y-50740000D02*
X177105000Y-53400000D01*
X194945000Y-50740000D02*
X177105000Y-50740000D01*
X194945000Y-50740000D02*
X194945000Y-53400000D01*
X194945000Y-53400000D02*
X177105000Y-53400000D01*
X196215000Y-50740000D02*
X197545000Y-50740000D01*
X197545000Y-50740000D02*
X197545000Y-52070000D01*
X159325000Y-102295000D02*
X159325000Y-100965000D01*
X160655000Y-102295000D02*
X159325000Y-102295000D01*
X161925000Y-99635000D02*
X179765000Y-99635000D01*
X161925000Y-102295000D02*
X161925000Y-99635000D01*
X161925000Y-102295000D02*
X179765000Y-102295000D01*
X179765000Y-102295000D02*
X179765000Y-99635000D01*
X182185000Y-102295000D02*
X182185000Y-100965000D01*
X183515000Y-102295000D02*
X182185000Y-102295000D01*
X184785000Y-99635000D02*
X197545000Y-99635000D01*
X184785000Y-102295000D02*
X184785000Y-99635000D01*
X184785000Y-102295000D02*
X197545000Y-102295000D01*
X197545000Y-102295000D02*
X197545000Y-99635000D01*
X176170000Y-70150000D02*
X176170000Y-85450000D01*
X176170000Y-70150000D02*
X178830000Y-70150000D01*
X176170000Y-85450000D02*
X178830000Y-85450000D01*
X177500000Y-67550000D02*
X178830000Y-67550000D01*
X178830000Y-67550000D02*
X178830000Y-68880000D01*
X178830000Y-70150000D02*
X178830000Y-85450000D01*
M02*
