G04 #@! TF.GenerationSoftware,KiCad,Pcbnew,9.0.7*
G04 #@! TF.CreationDate,2026-04-03T00:17:23+02:00*
G04 #@! TF.ProjectId,kicad-template-arduino-hat,6b696361-642d-4746-956d-706c6174652d,rev?*
G04 #@! TF.SameCoordinates,Original*
G04 #@! TF.FileFunction,Legend,Bot*
G04 #@! TF.FilePolarity,Positive*
%FSLAX46Y46*%
G04 Gerber Fmt 4.6, Leading zero omitted, Abs format (unit mm)*
G04 Created by KiCad (PCBNEW 9.0.7) date 2026-04-03 00:17:23*
%MOMM*%
%LPD*%
G01*
G04 APERTURE LIST*
%ADD10C,0.150000*%
G04 APERTURE END LIST*
D10*
X149946562Y-95646687D02*
X149898943Y-95503830D01*
X149898943Y-95503830D02*
X149851324Y-95456211D01*
X149851324Y-95456211D02*
X149756086Y-95408592D01*
X149756086Y-95408592D02*
X149613229Y-95408592D01*
X149613229Y-95408592D02*
X149517991Y-95456211D01*
X149517991Y-95456211D02*
X149470372Y-95503830D01*
X149470372Y-95503830D02*
X149422752Y-95599068D01*
X149422752Y-95599068D02*
X149422752Y-95980020D01*
X149422752Y-95980020D02*
X150422752Y-95980020D01*
X150422752Y-95980020D02*
X150422752Y-95646687D01*
X150422752Y-95646687D02*
X150375133Y-95551449D01*
X150375133Y-95551449D02*
X150327514Y-95503830D01*
X150327514Y-95503830D02*
X150232276Y-95456211D01*
X150232276Y-95456211D02*
X150137038Y-95456211D01*
X150137038Y-95456211D02*
X150041800Y-95503830D01*
X150041800Y-95503830D02*
X149994181Y-95551449D01*
X149994181Y-95551449D02*
X149946562Y-95646687D01*
X149946562Y-95646687D02*
X149946562Y-95980020D01*
X149708467Y-95027639D02*
X149708467Y-94551449D01*
X149422752Y-95122877D02*
X150422752Y-94789544D01*
X150422752Y-94789544D02*
X149422752Y-94456211D01*
X149517991Y-93551449D02*
X149470372Y-93599068D01*
X149470372Y-93599068D02*
X149422752Y-93741925D01*
X149422752Y-93741925D02*
X149422752Y-93837163D01*
X149422752Y-93837163D02*
X149470372Y-93980020D01*
X149470372Y-93980020D02*
X149565610Y-94075258D01*
X149565610Y-94075258D02*
X149660848Y-94122877D01*
X149660848Y-94122877D02*
X149851324Y-94170496D01*
X149851324Y-94170496D02*
X149994181Y-94170496D01*
X149994181Y-94170496D02*
X150184657Y-94122877D01*
X150184657Y-94122877D02*
X150279895Y-94075258D01*
X150279895Y-94075258D02*
X150375133Y-93980020D01*
X150375133Y-93980020D02*
X150422752Y-93837163D01*
X150422752Y-93837163D02*
X150422752Y-93741925D01*
X150422752Y-93741925D02*
X150375133Y-93599068D01*
X150375133Y-93599068D02*
X150327514Y-93551449D01*
X149422752Y-93122877D02*
X150422752Y-93122877D01*
X149422752Y-92551449D02*
X149994181Y-92980020D01*
X150422752Y-92551449D02*
X149851324Y-93122877D01*
X148098523Y-96027639D02*
X148098523Y-95551449D01*
X147812808Y-96122877D02*
X148812808Y-95789544D01*
X148812808Y-95789544D02*
X147812808Y-95456211D01*
X148479475Y-95265734D02*
X148479475Y-94884782D01*
X148812808Y-95122877D02*
X147955666Y-95122877D01*
X147955666Y-95122877D02*
X147860428Y-95075258D01*
X147860428Y-95075258D02*
X147812808Y-94980020D01*
X147812808Y-94980020D02*
X147812808Y-94884782D01*
X148479475Y-94694305D02*
X148479475Y-94313353D01*
X148812808Y-94551448D02*
X147955666Y-94551448D01*
X147955666Y-94551448D02*
X147860428Y-94503829D01*
X147860428Y-94503829D02*
X147812808Y-94408591D01*
X147812808Y-94408591D02*
X147812808Y-94313353D01*
X147812808Y-93551448D02*
X148336618Y-93551448D01*
X148336618Y-93551448D02*
X148431856Y-93599067D01*
X148431856Y-93599067D02*
X148479475Y-93694305D01*
X148479475Y-93694305D02*
X148479475Y-93884781D01*
X148479475Y-93884781D02*
X148431856Y-93980019D01*
X147860428Y-93551448D02*
X147812808Y-93646686D01*
X147812808Y-93646686D02*
X147812808Y-93884781D01*
X147812808Y-93884781D02*
X147860428Y-93980019D01*
X147860428Y-93980019D02*
X147955666Y-94027638D01*
X147955666Y-94027638D02*
X148050904Y-94027638D01*
X148050904Y-94027638D02*
X148146142Y-93980019D01*
X148146142Y-93980019D02*
X148193761Y-93884781D01*
X148193761Y-93884781D02*
X148193761Y-93646686D01*
X148193761Y-93646686D02*
X148241380Y-93551448D01*
X147860428Y-92646686D02*
X147812808Y-92741924D01*
X147812808Y-92741924D02*
X147812808Y-92932400D01*
X147812808Y-92932400D02*
X147860428Y-93027638D01*
X147860428Y-93027638D02*
X147908047Y-93075257D01*
X147908047Y-93075257D02*
X148003285Y-93122876D01*
X148003285Y-93122876D02*
X148288999Y-93122876D01*
X148288999Y-93122876D02*
X148384237Y-93075257D01*
X148384237Y-93075257D02*
X148431856Y-93027638D01*
X148431856Y-93027638D02*
X148479475Y-92932400D01*
X148479475Y-92932400D02*
X148479475Y-92741924D01*
X148479475Y-92741924D02*
X148431856Y-92646686D01*
X147812808Y-92218114D02*
X148812808Y-92218114D01*
X147812808Y-91789543D02*
X148336618Y-91789543D01*
X148336618Y-91789543D02*
X148431856Y-91837162D01*
X148431856Y-91837162D02*
X148479475Y-91932400D01*
X148479475Y-91932400D02*
X148479475Y-92075257D01*
X148479475Y-92075257D02*
X148431856Y-92170495D01*
X148431856Y-92170495D02*
X148384237Y-92218114D01*
X147812808Y-90551447D02*
X148812808Y-90551447D01*
X147812808Y-90122876D02*
X148336618Y-90122876D01*
X148336618Y-90122876D02*
X148431856Y-90170495D01*
X148431856Y-90170495D02*
X148479475Y-90265733D01*
X148479475Y-90265733D02*
X148479475Y-90408590D01*
X148479475Y-90408590D02*
X148431856Y-90503828D01*
X148431856Y-90503828D02*
X148384237Y-90551447D01*
X147860428Y-89265733D02*
X147812808Y-89360971D01*
X147812808Y-89360971D02*
X147812808Y-89551447D01*
X147812808Y-89551447D02*
X147860428Y-89646685D01*
X147860428Y-89646685D02*
X147955666Y-89694304D01*
X147955666Y-89694304D02*
X148336618Y-89694304D01*
X148336618Y-89694304D02*
X148431856Y-89646685D01*
X148431856Y-89646685D02*
X148479475Y-89551447D01*
X148479475Y-89551447D02*
X148479475Y-89360971D01*
X148479475Y-89360971D02*
X148431856Y-89265733D01*
X148431856Y-89265733D02*
X148336618Y-89218114D01*
X148336618Y-89218114D02*
X148241380Y-89218114D01*
X148241380Y-89218114D02*
X148146142Y-89694304D01*
X147812808Y-88360971D02*
X148336618Y-88360971D01*
X148336618Y-88360971D02*
X148431856Y-88408590D01*
X148431856Y-88408590D02*
X148479475Y-88503828D01*
X148479475Y-88503828D02*
X148479475Y-88694304D01*
X148479475Y-88694304D02*
X148431856Y-88789542D01*
X147860428Y-88360971D02*
X147812808Y-88456209D01*
X147812808Y-88456209D02*
X147812808Y-88694304D01*
X147812808Y-88694304D02*
X147860428Y-88789542D01*
X147860428Y-88789542D02*
X147955666Y-88837161D01*
X147955666Y-88837161D02*
X148050904Y-88837161D01*
X148050904Y-88837161D02*
X148146142Y-88789542D01*
X148146142Y-88789542D02*
X148193761Y-88694304D01*
X148193761Y-88694304D02*
X148193761Y-88456209D01*
X148193761Y-88456209D02*
X148241380Y-88360971D01*
X147812808Y-87456209D02*
X148812808Y-87456209D01*
X147860428Y-87456209D02*
X147812808Y-87551447D01*
X147812808Y-87551447D02*
X147812808Y-87741923D01*
X147812808Y-87741923D02*
X147860428Y-87837161D01*
X147860428Y-87837161D02*
X147908047Y-87884780D01*
X147908047Y-87884780D02*
X148003285Y-87932399D01*
X148003285Y-87932399D02*
X148288999Y-87932399D01*
X148288999Y-87932399D02*
X148384237Y-87884780D01*
X148384237Y-87884780D02*
X148431856Y-87837161D01*
X148431856Y-87837161D02*
X148479475Y-87741923D01*
X148479475Y-87741923D02*
X148479475Y-87551447D01*
X148479475Y-87551447D02*
X148431856Y-87456209D01*
X147860428Y-86599066D02*
X147812808Y-86694304D01*
X147812808Y-86694304D02*
X147812808Y-86884780D01*
X147812808Y-86884780D02*
X147860428Y-86980018D01*
X147860428Y-86980018D02*
X147955666Y-87027637D01*
X147955666Y-87027637D02*
X148336618Y-87027637D01*
X148336618Y-87027637D02*
X148431856Y-86980018D01*
X148431856Y-86980018D02*
X148479475Y-86884780D01*
X148479475Y-86884780D02*
X148479475Y-86694304D01*
X148479475Y-86694304D02*
X148431856Y-86599066D01*
X148431856Y-86599066D02*
X148336618Y-86551447D01*
X148336618Y-86551447D02*
X148241380Y-86551447D01*
X148241380Y-86551447D02*
X148146142Y-87027637D01*
X147812808Y-86122875D02*
X148479475Y-86122875D01*
X148288999Y-86122875D02*
X148384237Y-86075256D01*
X148384237Y-86075256D02*
X148431856Y-86027637D01*
X148431856Y-86027637D02*
X148479475Y-85932399D01*
X148479475Y-85932399D02*
X148479475Y-85837161D01*
X147860428Y-85551446D02*
X147812808Y-85456208D01*
X147812808Y-85456208D02*
X147812808Y-85265732D01*
X147812808Y-85265732D02*
X147860428Y-85170494D01*
X147860428Y-85170494D02*
X147955666Y-85122875D01*
X147955666Y-85122875D02*
X148003285Y-85122875D01*
X148003285Y-85122875D02*
X148098523Y-85170494D01*
X148098523Y-85170494D02*
X148146142Y-85265732D01*
X148146142Y-85265732D02*
X148146142Y-85408589D01*
X148146142Y-85408589D02*
X148193761Y-85503827D01*
X148193761Y-85503827D02*
X148288999Y-85551446D01*
X148288999Y-85551446D02*
X148336618Y-85551446D01*
X148336618Y-85551446D02*
X148431856Y-85503827D01*
X148431856Y-85503827D02*
X148479475Y-85408589D01*
X148479475Y-85408589D02*
X148479475Y-85265732D01*
X148479475Y-85265732D02*
X148431856Y-85170494D01*
X147812808Y-83789541D02*
X147860428Y-83884779D01*
X147860428Y-83884779D02*
X147908047Y-83932398D01*
X147908047Y-83932398D02*
X148003285Y-83980017D01*
X148003285Y-83980017D02*
X148288999Y-83980017D01*
X148288999Y-83980017D02*
X148384237Y-83932398D01*
X148384237Y-83932398D02*
X148431856Y-83884779D01*
X148431856Y-83884779D02*
X148479475Y-83789541D01*
X148479475Y-83789541D02*
X148479475Y-83646684D01*
X148479475Y-83646684D02*
X148431856Y-83551446D01*
X148431856Y-83551446D02*
X148384237Y-83503827D01*
X148384237Y-83503827D02*
X148288999Y-83456208D01*
X148288999Y-83456208D02*
X148003285Y-83456208D01*
X148003285Y-83456208D02*
X147908047Y-83503827D01*
X147908047Y-83503827D02*
X147860428Y-83551446D01*
X147860428Y-83551446D02*
X147812808Y-83646684D01*
X147812808Y-83646684D02*
X147812808Y-83789541D01*
X148479475Y-83027636D02*
X147812808Y-83027636D01*
X148384237Y-83027636D02*
X148431856Y-82980017D01*
X148431856Y-82980017D02*
X148479475Y-82884779D01*
X148479475Y-82884779D02*
X148479475Y-82741922D01*
X148479475Y-82741922D02*
X148431856Y-82646684D01*
X148431856Y-82646684D02*
X148336618Y-82599065D01*
X148336618Y-82599065D02*
X147812808Y-82599065D01*
X148479475Y-81503826D02*
X148479475Y-81122874D01*
X148812808Y-81360969D02*
X147955666Y-81360969D01*
X147955666Y-81360969D02*
X147860428Y-81313350D01*
X147860428Y-81313350D02*
X147812808Y-81218112D01*
X147812808Y-81218112D02*
X147812808Y-81122874D01*
X147812808Y-80789540D02*
X148812808Y-80789540D01*
X147812808Y-80360969D02*
X148336618Y-80360969D01*
X148336618Y-80360969D02*
X148431856Y-80408588D01*
X148431856Y-80408588D02*
X148479475Y-80503826D01*
X148479475Y-80503826D02*
X148479475Y-80646683D01*
X148479475Y-80646683D02*
X148431856Y-80741921D01*
X148431856Y-80741921D02*
X148384237Y-80789540D01*
X147812808Y-79884778D02*
X148479475Y-79884778D01*
X148812808Y-79884778D02*
X148765189Y-79932397D01*
X148765189Y-79932397D02*
X148717570Y-79884778D01*
X148717570Y-79884778D02*
X148765189Y-79837159D01*
X148765189Y-79837159D02*
X148812808Y-79884778D01*
X148812808Y-79884778D02*
X148717570Y-79884778D01*
X147860428Y-79456207D02*
X147812808Y-79360969D01*
X147812808Y-79360969D02*
X147812808Y-79170493D01*
X147812808Y-79170493D02*
X147860428Y-79075255D01*
X147860428Y-79075255D02*
X147955666Y-79027636D01*
X147955666Y-79027636D02*
X148003285Y-79027636D01*
X148003285Y-79027636D02*
X148098523Y-79075255D01*
X148098523Y-79075255D02*
X148146142Y-79170493D01*
X148146142Y-79170493D02*
X148146142Y-79313350D01*
X148146142Y-79313350D02*
X148193761Y-79408588D01*
X148193761Y-79408588D02*
X148288999Y-79456207D01*
X148288999Y-79456207D02*
X148336618Y-79456207D01*
X148336618Y-79456207D02*
X148431856Y-79408588D01*
X148431856Y-79408588D02*
X148479475Y-79313350D01*
X148479475Y-79313350D02*
X148479475Y-79170493D01*
X148479475Y-79170493D02*
X148431856Y-79075255D01*
X147860428Y-77884778D02*
X147812808Y-77789540D01*
X147812808Y-77789540D02*
X147812808Y-77599064D01*
X147812808Y-77599064D02*
X147860428Y-77503826D01*
X147860428Y-77503826D02*
X147955666Y-77456207D01*
X147955666Y-77456207D02*
X148003285Y-77456207D01*
X148003285Y-77456207D02*
X148098523Y-77503826D01*
X148098523Y-77503826D02*
X148146142Y-77599064D01*
X148146142Y-77599064D02*
X148146142Y-77741921D01*
X148146142Y-77741921D02*
X148193761Y-77837159D01*
X148193761Y-77837159D02*
X148288999Y-77884778D01*
X148288999Y-77884778D02*
X148336618Y-77884778D01*
X148336618Y-77884778D02*
X148431856Y-77837159D01*
X148431856Y-77837159D02*
X148479475Y-77741921D01*
X148479475Y-77741921D02*
X148479475Y-77599064D01*
X148479475Y-77599064D02*
X148431856Y-77503826D01*
X147812808Y-77027635D02*
X148479475Y-77027635D01*
X148812808Y-77027635D02*
X148765189Y-77075254D01*
X148765189Y-77075254D02*
X148717570Y-77027635D01*
X148717570Y-77027635D02*
X148765189Y-76980016D01*
X148765189Y-76980016D02*
X148812808Y-77027635D01*
X148812808Y-77027635D02*
X148717570Y-77027635D01*
X147812808Y-76122874D02*
X148812808Y-76122874D01*
X147860428Y-76122874D02*
X147812808Y-76218112D01*
X147812808Y-76218112D02*
X147812808Y-76408588D01*
X147812808Y-76408588D02*
X147860428Y-76503826D01*
X147860428Y-76503826D02*
X147908047Y-76551445D01*
X147908047Y-76551445D02*
X148003285Y-76599064D01*
X148003285Y-76599064D02*
X148288999Y-76599064D01*
X148288999Y-76599064D02*
X148384237Y-76551445D01*
X148384237Y-76551445D02*
X148431856Y-76503826D01*
X148431856Y-76503826D02*
X148479475Y-76408588D01*
X148479475Y-76408588D02*
X148479475Y-76218112D01*
X148479475Y-76218112D02*
X148431856Y-76122874D01*
X147860428Y-75265731D02*
X147812808Y-75360969D01*
X147812808Y-75360969D02*
X147812808Y-75551445D01*
X147812808Y-75551445D02*
X147860428Y-75646683D01*
X147860428Y-75646683D02*
X147955666Y-75694302D01*
X147955666Y-75694302D02*
X148336618Y-75694302D01*
X148336618Y-75694302D02*
X148431856Y-75646683D01*
X148431856Y-75646683D02*
X148479475Y-75551445D01*
X148479475Y-75551445D02*
X148479475Y-75360969D01*
X148479475Y-75360969D02*
X148431856Y-75265731D01*
X148431856Y-75265731D02*
X148336618Y-75218112D01*
X148336618Y-75218112D02*
X148241380Y-75218112D01*
X148241380Y-75218112D02*
X148146142Y-75694302D01*
M02*
